HIERARCHY
ROOT Hips
{
	OFFSET 0.000000 0.000000 0.000000
	CHANNELS 6 Xposition Yposition Zposition Zrotation Xrotation Yrotation
	JOINT LeftUpperLeg
	{
		OFFSET 0.082078 0.015996 -0.067517
		CHANNELS 3 Zrotation Xrotation Yrotation
		JOINT LeftLowerLeg
		{
			OFFSET 0.000000 -0.002846 -0.443705
			CHANNELS 3 Zrotation Xrotation Yrotation
			JOINT LeftFoot
			{
				OFFSET 0.000000 0.029822 -0.444279
				CHANNELS 3 Zrotation Xrotation Yrotation
				JOINT LeftToes
				{
					OFFSET 0.000000 -0.107106 -0.087287
					CHANNELS 3 Zrotation Xrotation Yrotation
					End Site
					{
						OFFSET 0.000000 -0.107106 -0.087287
					}
				}
			}
		}
	}
	JOINT RightUpperLeg
	{
		OFFSET -0.082078 0.015996 -0.067517
		CHANNELS 3 Zrotation Xrotation Yrotation
		JOINT RightLowerLeg
		{
			OFFSET 0.000000 -0.002862 -0.443705
			CHANNELS 3 Zrotation Xrotation Yrotation
			JOINT RightFoot
			{
				OFFSET 0.000000 0.029838 -0.444277
				CHANNELS 3 Zrotation Xrotation Yrotation
				JOINT RightToes
				{
					OFFSET 0.000000 -0.107106 -0.087287
					CHANNELS 3 Zrotation Xrotation Yrotation
					End Site
					{
						OFFSET 0.000000 -0.107106 -0.087287
					}
				}
			}
		}
	}
	JOINT Spine
	{
		OFFSET 0.000000 -0.001315 0.101816
		CHANNELS 3 Zrotation Xrotation Yrotation
		JOINT Chest
		{
			OFFSET 0.000000 0.010008 0.100835
			CHANNELS 3 Zrotation Xrotation Yrotation
			JOINT UpperChest
			{
				OFFSET 0.000000 0.013734 0.091000
				CHANNELS 3 Zrotation Xrotation Yrotation
				JOINT LeftShoulder
				{
					OFFSET 0.045704 0.026280 0.109460
					CHANNELS 3 Zrotation Xrotation Yrotation
					JOINT LeftUpperArm
					{
						OFFSET 0.105924 0.022321 -0.005246
						CHANNELS 3 Zrotation Xrotation Yrotation
						JOINT LeftLowerArm
						{
							OFFSET 0.278415 0.000000 -0.000001
							CHANNELS 3 Zrotation Xrotation Yrotation
							JOINT LeftHand
							{
								OFFSET 0.283288 0.000000 0.000000
								CHANNELS 3 Zrotation Xrotation Yrotation
								End Site
								{
									OFFSET 0.283288 0.000000 0.000000
								}
							}
						}
					}
				}
				JOINT Neck
				{
					OFFSET 0.000000 0.025162 0.166717
					CHANNELS 3 Zrotation Xrotation Yrotation
					JOINT Head
					{
						OFFSET 0.000000 -0.016850 0.096179
						CHANNELS 3 Zrotation Xrotation Yrotation
						End Site
						{
							OFFSET 0.000000 -0.016850 0.096179
						}
					}
				}
				JOINT RightShoulder
				{
					OFFSET -0.045700 0.026280 0.109462
					CHANNELS 3 Zrotation Xrotation Yrotation
					JOINT RightUpperArm
					{
						OFFSET -0.105929 0.022321 -0.005248
						CHANNELS 3 Zrotation Xrotation Yrotation
						JOINT RightLowerArm
						{
							OFFSET -0.278415 0.000000 0.000000
							CHANNELS 3 Zrotation Xrotation Yrotation
							JOINT RightHand
							{
								OFFSET -0.283288 -0.000001 0.000000
								CHANNELS 3 Zrotation Xrotation Yrotation
								End Site
								{
									OFFSET -0.283288 -0.000001 0.000000
								}
							}
						}
					}
				}
			}
		}
	}
}
MOTION
Frames: 17
Frame Time: 0.016949
-0.012634 0.043160 1.048727 -3.905953 0.643151 0.536968 10.755630 7.953183 -2.368466 0.000001 -4.207748 0.000002 2.890108 4.269773 0.384856 -0.085497 -8.916251 0.067286 -7.864038 5.374751 3.344008 -0.000001 -4.211766 -0.000001 -2.477878 6.419077 -2.457621 0.380094 -8.440063 -0.299740 0.712087 6.834400 0.198929 0.797879 2.308037 0.168614 -0.000000 0.000001 0.000000 -13.399704 -3.302019 11.798578 -13.398487 -8.730234 66.037670 0.000005 -0.000012 0.000202 -5.283767 44.904116 -19.056943 -1.246557 -17.338934 -0.369671 -1.492337 2.313209 -2.647281 13.696478 -3.386640 -11.777406 15.386314 -9.823894 -64.929090 -0.000200 -0.000003 -0.000003 2.700150 56.678832 16.235665 
-0.012648 0.043115 1.048713 -3.901921 0.647685 0.544969 10.755340 7.954197 -2.376882 -0.000000 -4.207753 0.000006 2.890971 4.239631 0.387329 -0.085566 -8.887614 0.067354 -7.867300 5.374074 3.332113 -0.000002 -4.211768 -0.000001 -2.477262 6.443542 -2.455678 0.381007 -8.465075 -0.300421 0.698260 6.835918 0.198284 0.782459 2.308472 0.167065 0.000000 0.000000 -0.000000 -13.403305 -3.303044 11.798349 -13.406649 -8.740741 66.068720 -0.000003 -0.000004 0.000192 -5.238001 44.942102 -19.073336 -1.213957 -17.339320 -0.363959 -1.460723 2.294460 -2.642140 13.698680 -3.387261 -11.777197 15.405242 -9.832140 -64.908258 -0.000207 -0.000008 0.000003 2.739444 56.608960 16.176968 
-0.012694 0.043075 1.048773 -3.890101 0.653021 0.535011 10.748042 7.950132 -2.369513 0.000001 -4.207729 0.000003 2.887826 4.286545 0.388669 -0.086206 -8.932768 0.067837 -7.877337 5.365930 3.339228 -0.000001 -4.211751 -0.000006 -2.480907 6.499352 -2.452183 0.383193 -8.519781 -0.302081 0.700111 6.836435 0.197214 0.784452 2.309016 0.167049 0.000000 0.000001 0.000000 -13.405608 -3.303702 11.798157 -13.417376 -8.748141 66.071002 -0.000004 -0.000000 0.000210 -5.430367 44.433215 -18.725705 -1.197394 -17.340228 -0.362239 -1.443742 2.284750 -2.636790 13.698500 -3.387210 -11.777229 15.412506 -9.833051 -64.888354 -0.000205 -0.000008 -0.000012 2.707862 56.558686 16.231834 
-0.012698 0.043049 1.048790 -3.887986 0.658846 0.535167 10.748060 7.944900 -2.369764 0.000003 -4.207750 0.000005 2.887932 4.303604 0.389368 -0.086499 -8.950121 0.068063 -7.880955 5.360577 3.339202 -0.000001 -4.211758 0.000005 -2.480577 6.497109 -2.453518 0.383296 -8.517839 -0.302164 0.695516 6.838627 0.198225 0.779365 2.310082 0.167090 -0.000000 0.000001 -0.000000 -13.407324 -3.304189 11.798065 -13.427080 -8.754615 66.071562 0.000003 -0.000005 0.000190 -5.459144 44.361898 -18.705414 -1.186394 -17.340699 -0.361191 -1.435224 2.259285 -2.651686 13.700395 -3.387747 -11.777095 15.427927 -9.839969 -64.872488 -0.000200 -0.000002 0.000004 2.715577 56.537734 16.232807 
-0.012688 0.042976 1.048865 -3.886014 0.670311 0.534003 10.746645 7.935902 -2.368542 0.000001 -4.207752 0.000009 2.887912 4.333829 0.389568 -0.086821 -8.977934 0.068307 -7.887903 5.345756 3.339348 -0.000003 -4.211763 0.000002 -2.480327 6.565217 -2.453405 0.386422 -8.582655 -0.304543 0.686463 6.839736 0.201572 0.769369 2.310760 0.167770 -0.000000 0.000002 0.000000 -13.413239 -3.305886 11.797655 -13.464660 -8.777949 66.063850 -0.000003 -0.000007 0.000207 -5.410399 44.537611 -18.834142 -1.161319 -17.340845 -0.360052 -1.416433 2.247157 -2.699939 13.703894 -3.388754 -11.776848 15.449555 -9.851770 -64.861416 -0.000200 -0.000002 -0.000001 2.668181 56.628774 16.291517 
-0.012690 0.042938 1.048857 -3.887628 0.672886 0.536424 10.748384 7.937439 -2.370454 0.000001 -4.207734 0.000002 2.889406 4.321464 0.388828 -0.086622 -8.968965 0.068160 -7.888217 5.344828 3.336439 0.000000 -4.211740 0.000005 -2.479906 6.570471 -2.453000 0.386687 -8.589281 -0.304746 0.681066 6.839823 0.202363 0.763379 2.310735 0.167599 -0.000000 0.000000 0.000000 -13.417248 -3.307022 11.797360 -13.490263 -8.793875 66.058707 0.000003 -0.000005 0.000191 -5.367713 44.768297 -18.938188 -1.148434 -17.341415 -0.358650 -1.405418 2.243821 -2.711744 13.706029 -3.389359 -11.776672 15.463456 -9.859222 -64.853630 -0.000203 -0.000002 0.000015 2.660977 56.695167 16.297924 
-0.012661 0.042875 1.048907 -3.889752 0.688325 0.527452 10.739837 7.930145 -2.352269 0.000001 -4.207774 0.000008 2.893595 4.325937 0.379405 -0.085352 -8.978272 0.067150 -7.888683 5.325446 3.345242 -0.000003 -4.211767 -0.000002 -2.479540 6.625421 -2.451388 0.388974 -8.641457 -0.306477 0.679928 6.839227 0.199071 0.761937 2.310383 0.166156 -0.000000 0.000000 -0.000000 -13.426706 -3.309719 11.796678 -13.543813 -8.828974 66.058782 0.000003 -0.000013 0.000219 -5.263080 45.183252 -19.095839 -1.143053 -17.340867 -0.358584 -1.395275 2.251101 -2.681044 13.707511 -3.389782 -11.776564 15.479751 -9.865283 -64.830318 -0.000196 0.000002 -0.000000 2.639138 56.673037 16.321615 
-0.012664 0.042831 1.048852 -3.897930 0.692337 0.528026 10.741963 7.935238 -2.349199 -0.000000 -4.207756 0.000003 2.896928 4.273487 0.376319 -0.084463 -8.933870 0.066467 -7.885821 5.326385 3.345470 -0.000001 -4.211758 0.000001 -2.477812 6.583726 -2.453796 0.387450 -8.603291 -0.305328 0.677318 6.840428 0.198173 0.758980 2.310618 0.165508 0.000000 0.000000 0.000000 -13.429963 -3.310663 11.796569 -13.565381 -8.842044 66.052430 -0.000006 -0.000005 0.000218 -5.223715 45.320907 -19.147918 -1.145580 -17.341114 -0.358718 -1.396682 2.237466 -2.670893 13.709150 -3.390247 -11.776481 15.493010 -9.871466 -64.818017 -0.000202 -0.000008 0.000007 2.649651 56.673686 16.298503 
-0.012744 0.042703 1.048796 -3.914162 0.697000 0.534565 10.750691 7.943561 -2.356968 -0.000001 -4.207747 0.000001 2.897977 4.227637 0.376780 -0.084169 -8.898094 0.066247 -7.879410 5.327110 3.335078 -0.000001 -4.211753 -0.000001 -2.477723 6.584708 -2.452484 0.387437 -8.607241 -0.305310 0.685398 6.838812 0.196328 0.767954 2.309713 0.165376 -0.000000 0.000000 0.000000 -13.431513 -3.311092 11.796408 -13.589160 -8.851473 66.015896 -0.000006 -0.000002 0.000213 -5.327542 45.143592 -19.047000 -1.158300 -17.340966 -0.358556 -1.405743 2.255318 -2.641567 13.711184 -3.390833 -11.776394 15.503259 -9.878357 -64.819711 -0.000200 -0.000003 0.000003 2.646649 56.677203 16.323930 
-0.012739 0.042651 1.048783 -3.922738 0.699015 0.537601 10.756627 7.947390 -2.359431 -0.000001 -4.207758 0.000006 2.899690 4.209343 0.376477 -0.083995 -8.882733 0.066107 -7.879175 5.326837 3.333991 -0.000002 -4.211777 -0.000001 -2.475656 6.563335 -2.455953 0.386826 -8.584332 -0.304863 0.684746 6.838041 0.196361 0.767224 2.309366 0.165390 -0.000000 0.000002 0.000000 -13.432716 -3.311440 11.796301 -13.599824 -8.856985 66.007249 -0.000004 -0.000002 0.000192 -5.404292 45.042424 -19.006477 -1.163249 -17.340862 -0.359295 -1.410445 2.264319 -2.641355 13.712590 -3.391229 -11.776226 15.514488 -9.883550 -64.809104 -0.000205 -0.000007 0.000001 2.662022 56.674096 16.315640 
-0.012771 0.042551 1.048705 -3.936542 0.700284 0.542783 10.766236 7.959453 -2.366388 -0.000000 -4.207735 0.000002 2.898601 4.145193 0.380223 -0.083926 -8.825480 0.066075 -7.874148 5.334305 3.328949 0.000001 -4.211759 -0.000001 -2.475093 6.491562 -2.458609 0.384067 -8.520492 -0.302763 0.689950 6.835615 0.197609 0.773064 2.308166 0.166479 0.000000 -0.000001 0.000000 -13.434323 -3.311891 11.796153 -13.623954 -8.866788 65.971663 -0.000001 -0.000007 0.000199 -5.507626 44.848856 -18.906268 -1.177406 -17.339905 -0.361871 -1.425297 2.294413 -2.653881 13.715067 -3.391941 -11.776079 15.526263 -9.891642 -64.811884 -0.000199 -0.000008 -0.000003 2.604779 56.733761 16.372997 
-0.012783 0.042488 1.048700 -3.944532 0.700885 0.550434 10.771803 7.962877 -2.374969 0.000002 -4.207746 -0.000001 2.899527 4.125467 0.381640 -0.083996 -8.811301 0.066132 -7.871070 5.337347 3.321886 -0.000003 -4.211744 -0.000000 -2.473714 6.478322 -2.459244 0.383607 -8.509598 -0.302419 0.688931 6.835725 0.197210 0.771944 2.308144 0.166125 -0.000000 0.000001 -0.000000 -13.434405 -3.311928 11.796244 -13.633086 -8.869310 65.951145 0.000003 -0.000009 0.000202 -5.523332 44.840731 -18.935520 -1.181387 -17.339986 -0.361128 -1.428515 2.293140 -2.643984 13.716200 -3.392266 -11.776014 15.534966 -9.895784 -64.804329 -0.000205 -0.000001 0.000015 2.625491 56.713243 16.348288 
-0.012838 0.042349 1.048738 -3.955128 0.705599 0.556396 10.774425 7.962536 -2.385278 0.000001 -4.207745 0.000005 2.894566 4.148566 0.387196 -0.085020 -8.836939 0.066933 -7.864268 5.336942 3.309849 -0.000002 -4.211748 0.000002 -2.478188 6.522183 -2.450898 0.384525 -8.552864 -0.303089 0.699878 6.835082 0.197185 0.784161 2.308193 0.167102 -0.000000 0.000001 0.000000 -13.436279 -3.312465 11.796129 -13.655729 -8.878904 65.920321 -0.000001 -0.000010 0.000199 -5.378458 45.169950 -19.092633 -1.187812 -17.340964 -0.361888 -1.434517 2.296094 -2.641590 13.718603 -3.392948 -11.775810 15.545401 -9.903523 -64.809821 -0.000196 -0.000003 0.000006 2.651228 56.692588 16.351592 
-0.012840 0.042284 1.048744 -3.965347 0.702878 0.562969 10.782975 7.967435 -2.394279 0.000002 -4.207747 0.000008 2.894267 4.151407 0.390788 -0.085563 -8.839657 0.067360 -7.858984 5.345817 3.306477 -0.000001 -4.211751 0.000001 -2.476507 6.478611 -2.453000 0.382668 -8.508567 -0.301681 0.699989 6.835363 0.197652 0.784326 2.308373 0.167296 -0.000000 0.000000 0.000000 -13.436686 -3.312580 11.796081 -13.663870 -8.881791 65.905930 -0.000003 -0.000010 0.000204 -5.296826 45.366943 -19.184046 -1.184440 -17.341425 -0.360802 -1.432096 2.291392 -2.644681 13.720256 -3.393421 -11.775788 15.554967 -9.909115 -64.806918 -0.000197 -0.000005 -0.000006 2.676985 56.736182 16.336224 
-0.012858 0.042179 1.048706 -3.980568 0.698215 0.569346 10.792374 7.976792 -2.407163 0.000000 -4.207750 0.000003 2.890679 4.145518 0.397749 -0.086507 -8.835417 0.068106 -7.848143 5.362732 3.302767 -0.000001 -4.211774 0.000003 -2.476536 6.403701 -2.453794 0.379107 -8.432162 -0.298966 0.705219 6.835627 0.200209 0.790261 2.308619 0.168919 -0.000000 0.000000 0.000000 -13.437342 -3.312766 11.796020 -13.677684 -8.886579 65.880904 -0.000008 -0.000005 0.000222 -5.114218 45.756636 -19.314329 -1.179597 -17.342231 -0.360933 -1.431413 2.285092 -2.675092 13.722806 -3.394146 -11.775558 15.564283 -9.917248 -64.818229 -0.000199 -0.000002 0.000003 2.709579 56.766576 16.322506 
-0.012853 0.042147 1.048713 -3.988868 0.692121 0.576619 10.796593 7.981968 -2.417388 0.000001 -4.207753 0.000005 2.890137 4.161952 0.400138 -0.086995 -8.850149 0.068489 -7.844239 5.373447 3.299647 -0.000001 -4.211754 0.000005 -2.474104 6.374781 -2.456847 0.378072 -8.402359 -0.298196 0.703616 6.835646 0.201480 0.788536 2.308750 0.169362 0.000000 0.000000 0.000000 -13.437199 -3.312724 11.796104 -13.680654 -8.886883 65.871171 0.000003 -0.000004 0.000206 -5.106039 45.772823 -19.324552 -1.171546 -17.343211 -0.359766 -1.425799 2.281328 -2.689562 13.723839 -3.394439 -11.775467 15.571086 -9.920926 -64.814623 -0.000203 -0.000002 0.000015 2.750667 56.743921 16.288758 
-0.012853 0.042050 1.048736 -3.999427 0.696748 0.582923 10.805135 7.976036 -2.426785 0.000001 -4.207744 0.000004 2.888675 4.192567 0.405165 -0.087957 -8.871126 0.069235 -7.835921 5.375319 3.297560 -0.000001 -4.211757 -0.000001 -2.472787 6.358559 -2.456847 0.377168 -8.383383 -0.297502 0.706055 6.836689 0.201529 0.791294 2.309358 0.169466 0.000000 0.000001 0.000000 -13.438474 -3.313085 11.795915 -13.698066 -8.893954 65.845851 0.000003 -0.000007 0.000201 -5.223532 45.560586 -19.184895 -1.173896 -17.343153 -0.359091 -1.428126 2.270526 -2.685650 13.726291 -3.395144 -11.775314 15.582035 -9.928610 -64.818079 -0.000198 -0.000000 0.000011 2.796070 56.741411 16.277625 
